<svg width="1200" height="360" viewBox="0 0 1200 360" fill="none" xmlns="http://www.w3.org/2000/svg">
  <rect width="1200" height="360" rx="32" fill="#E8FFF1"/>
  <!-- Top row cards -->
  <rect x="72" y="64" width="220" height="120" rx="18" fill="#FFFFFF"/>
  <circle cx="122" cy="112" r="26" fill="#FFE3C5"/>
  <rect x="162" y="96" width="110" height="16" rx="8" fill="#F3F4F6"/>
  <rect x="162" y="120" width="80" height="12" rx="6" fill="#D1FAE5"/>

  <rect x="330" y="64" width="380" height="120" rx="18" fill="#FFFFFF"/>
  <rect x="354" y="88" width="150" height="16" rx="8" fill="#F3F4F6"/>
  <rect x="354" y="118" width="260" height="10" rx="5" fill="#E5E7EB"/>
  <rect x="354" y="118" width="160" height="10" rx="5" fill="#4ADE80"/>
  <rect x="354" y="142" width="90" height="12" rx="6" fill="#F97316"/>
  <rect x="458" y="142" width="90" height="12" rx="6" fill="#38BDF8"/>
  <rect x="562" y="142" width="90" height="12" rx="6" fill="#A855F7"/>

  <rect x="746" y="64" width="382" height="120" rx="18" fill="#FFFFFF"/>
  <circle cx="782" cy="108" r="24" fill="#DBEAFE"/>
  <rect x="816" y="92" width="160" height="14" rx="7" fill="#F3F4F6"/>
  <rect x="816" y="116" width="120" height="12" rx="6" fill="#BBF7D0"/>
  <rect x="816" y="140" width="90" height="10" rx="5" fill="#E5E7EB"/>

  <!-- Middle row long card -->
  <rect x="72" y="200" width="1056" height="80" rx="18" fill="#FFFFFF"/>
  <rect x="96" y="224" width="160" height="16" rx="8" fill="#F3F4F6"/>
  <rect x="292" y="224" width="200" height="10" rx="5" fill="#E5E7EB"/>
  <rect x="292" y="224" width="130" height="10" rx="5" fill="#22C55E"/>
  <rect x="532" y="220" width="140" height="20" rx="10" fill="#F97316" fill-opacity="0.15"/>
  <rect x="702" y="220" width="140" height="20" rx="10" fill="#38BDF8" fill-opacity="0.15"/>
  <rect x="872" y="220" width="140" height="20" rx="10" fill="#A855F7" fill-opacity="0.15"/>

  <!-- Bottom thumbnails -->
  <rect x="72" y="296" width="320" height="40" rx="14" fill="#FFFFFF"/>
  <rect x="416" y="296" width="320" height="40" rx="14" fill="#FFFFFF"/>
  <rect x="760" y="296" width="320" height="40" rx="14" fill="#FFFFFF"/>
</svg>
