<svg width="960" height="520" viewBox="0 0 960 520" xmlns="http://www.w3.org/2000/svg">
  <!-- Background -->
  <rect width="960" height="520" rx="18" fill="#111827"/>

  <!-- Left sidebar -->
  <rect x="24" y="24" width="72" height="472" rx="14" fill="#020617"/>
  <!-- Server icon -->
  <circle cx="60" cy="68" r="18" fill="#4f46e5"/>
  <rect x="42" y="112" width="36" height="36" rx="10" fill="#1f2937"/>
  <rect x="42" y="158" width="36" height="36" rx="10" fill="#1f2937"/>
  <rect x="42" y="204" width="36" height="36" rx="10" fill="#1f2937" opacity="0.5"/>

  <!-- Channel list -->
  <rect x="110" y="24" width="190" height="472" rx="14" fill="#020617"/>
  <rect x="122" y="40" width="80" height="10" rx="5" fill="#6b7280"/>
  <rect x="122" y="68" width="156" height="18" rx="6" fill="#111827"/>
  <rect x="122" y="100" width="140" height="10" rx="5" fill="#4b5563"/>
  <rect x="122" y="120" width="120" height="10" rx="5" fill="#4b5563"/>
  <rect x="122" y="150" width="60" height="10" rx="5" fill="#6b7280" opacity="0.7"/>
  <rect x="122" y="168" width="128" height="10" rx="5" fill="#374151"/>
  <rect x="122" y="188" width="112" height="10" rx="5" fill="#374151"/>
  <rect x="122" y="224" width="52" height="10" rx="5" fill="#6b7280" opacity="0.7"/>
  <rect x="122" y="242" width="148" height="10" rx="5" fill="#374151"/>
  <rect x="122" y="262" width="136" height="10" rx="5" fill="#374151"/>

  <!-- Main chat header -->
  <rect x="314" y="24" width="430" height="52" rx="12" fill="#020617"/>
  <rect x="332" y="40" width="120" height="14" rx="7" fill="#e5e7eb"/>
  <rect x="470" y="40" width="90" height="12" rx="6" fill="#4b5563" opacity="0.7"/>

  <!-- Main chat area -->
  <rect x="314" y="84" width="430" height="310" rx="14" fill="#020617"/>
  <!-- message blocks -->
  <rect x="332" y="100" width="48" height="48" rx="12" fill="#111827"/>
  <rect x="392" y="104" width="170" height="10" rx="5" fill="#e5e7eb"/>
  <rect x="392" y="122" width="260" height="9" rx="4.5" fill="#6b7280"/>
  <rect x="392" y="138" width="210" height="9" rx="4.5" fill="#6b7280" opacity="0.8"/>

  <rect x="332" y="170" width="48" height="48" rx="12" fill="#111827"/>
  <rect x="392" y="174" width="160" height="10" rx="5" fill="#e5e7eb"/>
  <rect x="392" y="192" width="250" height="9" rx="4.5" fill="#6b7280"/>
  <rect x="392" y="208" width="190" height="9" rx="4.5" fill="#6b7280" opacity="0.8"/>

  <rect x="332" y="240" width="48" height="48" rx="12" fill="#111827"/>
  <rect x="392" y="244" width="150" height="10" rx="5" fill="#e5e7eb"/>
  <rect x="392" y="262" width="260" height="9" rx="4.5" fill="#6b7280"/>
  <rect x="392" y="278" width="210" height="9" rx="4.5" fill="#6b7280" opacity="0.8"/>

  <!-- message input -->
  <rect x="332" y="360" width="382" height="28" rx="8" fill="#020617" stroke="#374151" stroke-width="1"/>
  <rect x="344" y="368" width="120" height="10" rx="5" fill="#4b5563"/>

  <!-- Right sidebar -->
  <rect x="756" y="24" width="180" height="472" rx="14" fill="#020617"/>
  <rect x="772" y="40" width="80" height="10" rx="5" fill="#e5e7eb"/>
  <rect x="772" y="70" width="60" height="8" rx="4" fill="#6b7280"/>
  <rect x="772" y="90" width="132" height="12" rx="6" fill="#111827"/>
  <rect x="772" y="112" width="132" height="12" rx="6" fill="#111827"/>
  <rect x="772" y="148" width="70" height="8" rx="4" fill="#6b7280"/>
  <rect x="772" y="166" width="132" height="12" rx="6" fill="#111827"/>
  <rect x="772" y="188" width="132" height="12" rx="6" fill="#111827"/>

  <!-- Discord logo-style mark in header -->
  <circle cx="340" cy="50" r="10" fill="#4f46e5"/>
  <path d="M336 48c1-.5 2-.8 3.3-.8s2.3.3 3.3.8l.2.8c.6.1 1 .3 1.4.5-.2 1.5-.8 2.9-1.8 4.1-.7-.2-1.3-.4-1.8-.7-.3.2-.7.3-1.1.3s-.8-.1-1.1-.3c-.5.3-1.1.5-1.8.7-1-1.2-1.6-2.6-1.8-4.1.4-.2.8-.4 1.4-.5l.2-.8z"
        fill="#ffffff"/>
</svg>
