<svg width="960" height="540" viewBox="0 0 960 540" xmlns="http://www.w3.org/2000/svg">
  <!-- Background -->
  <rect width="960" height="540" rx="24" fill="#0f172a"/>

  <!-- Window bar -->
  <rect x="40" y="40" width="880" height="40" rx="12" fill="#111827"/>
  <circle cx="64" cy="60" r="6" fill="#f97373"/>
  <circle cx="84" cy="60" r="6" fill="#facc15"/>
  <circle cx="104" cy="60" r="6" fill="#4ade80"/>
  <rect x="140" y="52" width="140" height="16" rx="8" fill="#1f2937"/>
  <rect x="148" y="56" width="60" height="8" rx="4" fill="#4b5563"/>

  <!-- Sidebar -->
  <rect x="40" y="80" width="180" height="380" rx="14" fill="#020617"/>
  <rect x="56" y="100" width="120" height="16" rx="4" fill="#1e293b"/>
  <rect x="56" y="132" width="90" height="12" rx="4" fill="#4b5563"/>
  <rect x="56" y="156" width="70" height="12" rx="4" fill="#4b5563"/>
  <rect x="56" y="180" width="80" height="12" rx="4" fill="#4b5563"/>
  <rect x="56" y="220" width="110" height="12" rx="4" fill="#6b7280"/>
  <rect x="56" y="244" width="90" height="12" rx="4" fill="#6b7280"/>
  <rect x="56" y="268" width="60" height="12" rx="4" fill="#6b7280"/>

  <!-- Editor pane -->
  <rect x="240" y="80" width="680" height="260" rx="14" fill="#020617"/>
  <!-- Line numbers -->
  <rect x="252" y="92" width="32" height="236" rx="8" fill="#020617"/>
  <rect x="258" y="104" width="20" height="6" rx="3" fill="#4b5563"/>
  <rect x="258" y="124" width="20" height="6" rx="3" fill="#4b5563"/>
  <rect x="258" y="144" width="20" height="6" rx="3" fill="#4b5563"/>
  <rect x="258" y="164" width="20" height="6" rx="3" fill="#4b5563"/>

  <!-- Code lines -->
  <rect x="300" y="104" width="140" height="10" rx="5" fill="#facc15"/>
  <rect x="300" y="124" width="220" height="10" rx="5" fill="#e5e7eb"/>
  <rect x="300" y="144" width="180" height="10" rx="5" fill="#38bdf8"/>
  <rect x="300" y="164" width="260" height="10" rx="5" fill="#a5b4fc"/>
  <rect x="300" y="184" width="200" height="10" rx="5" fill="#22c55e"/>
  <rect x="300" y="204" width="150" height="10" rx="5" fill="#e5e7eb"/>
  <rect x="300" y="224" width="260" height="10" rx="5" fill="#e5e7eb"/>
  <rect x="300" y="244" width="130" height="10" rx="5" fill="#f97316"/>

  <!-- Output panel -->
  <rect x="240" y="356" width="680" height="104" rx="14" fill="#020617"/>
  <rect x="260" y="376" width="90" height="14" rx="7" fill="#16a34a"/>
  <rect x="264" y="379" width="10" height="8" rx="4" fill="#bbf7d0"/>
  <rect x="360" y="378" width="210" height="10" rx="5" fill="#e5e7eb"/>
  <rect x="260" y="408" width="260" height="10" rx="5" fill="#22c55e"/>
  <rect x="260" y="428" width="180" height="10" rx="5" fill="#e5e7eb"/>

  <!-- Python logo hint (circle + snakes-like shapes) -->
  <circle cx="840" cy="388" r="30" fill="#0f172a"/>
  <path d="M832 374h10c6 0 10 4 10 10v10c0 6-4 10-10 10h-8c-4 0-7-3-7-7v-5h9v4h6v-9h-10c-6 0-10-4-10-10v-4c0-5 4-9 10-9z"
        fill="#2563eb"/>
  <path d="M848 402h-10c-6 0-10-4-10-10v-10c0-6 4-10 10-10h8c4 0 7 3 7 7v5h-9v-4h-6v9h10c6 0 10 4 10 10v4c0 5-4 9-10 9z"
        fill="#facc15"/>
  <circle cx="838" cy="380" r="2" fill="#e5e7eb"/>
  <circle cx="852" cy="396" r="2" fill="#0f172a"/>
</svg>
